<svg xmlns="http://www.w3.org/2000/svg" version="1.1" xmlns:xlink="http://www.w3.org/1999/xlink" xmlns:svgjs="http://svgjs.dev/svgjs" width="1000" height="1000" viewBox="0 0 1000 1000"><rect width="1000" height="1000" fill="#6c0999"></rect><g transform="matrix(0.7,0,0,0.7,149.57575757575756,282.1265587044535)"><svg viewBox="0 0 396 247" data-background-color="#6c0999" preserveAspectRatio="xMidYMid meet" height="623" width="1000" xmlns="http://www.w3.org/2000/svg" xmlns:xlink="http://www.w3.org/1999/xlink"><defs></defs><g id="tight-bounds" transform="matrix(1,0,0,1,0.2400000000000091,-0.09999999999999432)"><svg viewBox="0 0 395.52 247.2" height="247.2" width="395.52"><g><svg></svg></g><g><svg viewBox="0 0 395.52 247.2" height="247.2" width="395.52"><g transform="matrix(1,0,0,1,75.54432,55.24200497000935)"><svg viewBox="0 0 244.43135999999998 136.7159900599813" height="136.7159900599813" width="244.43135999999998"><g><svg viewBox="0 0 245.65351679999998 137.3995700102812" height="136.7159900599813" width="244.43135999999998"><g><rect width="245.65351679999998" height="3.930414079874625" x="0" y="70.52157811530937" fill="#ffffff" opacity="1" stroke-width="0" stroke="transparent" fill-opacity="1" class="rect-o-0" data-fill-palette-color="primary" rx="1%" id="o-0" data-palette-color="#ffffff"></rect></g><g><rect width="245.65351679999998" height="3.930414079874625" x="0" y="79.59651324214032" fill="#ffffff" opacity="1" stroke-width="0" stroke="transparent" fill-opacity="1" class="rect-o-1" data-fill-palette-color="primary" rx="1%" id="o-1" data-palette-color="#ffffff"></rect></g><g transform="matrix(1,0,0,1,0.6110783999999825,93.81596941592757)"><svg viewBox="0 0 244.43136 43.58360059435364" height="43.58360059435364" width="244.43136"><g><svg viewBox="0 0 244.43136 43.58360059435364" height="43.58360059435364" width="244.43136"><g><svg viewBox="0 0 244.43136 43.58360059435364" height="43.58360059435364" width="244.43136"><g transform="matrix(1,0,0,1,0,0)"><svg width="244.43136" viewBox="0.9000000357627869 -35.5 201.88999938964844 36" height="43.58360059435364" data-palette-color="#ffffff"><path d="M5.85 0L5.85-1.5 24.25-1.5 13.65-30.65 2.5 0 0.9 0 13.65-35.05 26.4 0 5.85 0ZM35.95-33.5L35.95-35 55.1-35 55.1-15.05Q55.1-7.05 52.35-3.28 49.6 0.5 43.45 0.5 37.3 0.5 34.55-3.28 31.8-7.05 31.8-15.05L31.8-15.05 31.8-35 33.3-35 33.3-15.05Q33.3-10.9 34-8.08 34.7-5.25 36.1-3.75 37.5-2.25 39.25-1.63 41-1 43.45-1 45.9-1 47.65-1.63 49.4-2.25 50.8-3.75 52.2-5.25 52.9-8.08 53.6-10.9 53.6-15.05L53.6-15.05 53.6-33.5 35.95-33.5ZM60.35-35L85.34-35 85.34-33.5 73.59-33.5 73.59 0 72.09 0 72.09-33.5 60.35-33.5 60.35-35ZM110.49-3.28Q107.74 0.5 101.59 0.5 95.44 0.5 92.69-3.28 89.94-7.05 89.94-15.05L89.94-15.05 89.94-19.95Q89.94-27.95 92.69-31.73 95.44-35.5 101.59-35.5 107.74-35.5 110.49-31.73 113.24-27.95 113.24-19.95L113.24-19.95 113.24-15.05Q113.24-7.05 110.49-3.28ZM105.79-33.38Q104.04-34 101.59-34 99.14-34 97.39-33.38 95.64-32.75 94.24-31.25 92.84-29.75 92.14-26.93 91.44-24.1 91.44-19.95L91.44-19.95 91.44-15.05Q91.44-10.9 92.14-8.08 92.84-5.25 94.24-3.75 95.64-2.25 97.39-1.63 99.14-1 101.59-1 104.04-1 105.79-1.63 107.54-2.25 108.94-3.75 110.34-5.25 111.04-8.08 111.74-10.9 111.74-15.05L111.74-15.05 111.74-19.95Q111.74-24.1 111.04-26.93 110.34-29.75 108.94-31.25 107.54-32.75 105.79-33.38ZM130.04 0L130.04 0 122.04 0 122.04-35 128.14-35Q134.74-35 138.09-32.58 141.44-30.15 141.44-25.75L141.44-25.75Q141.44-20.75 137.24-18.4L137.24-18.4Q143.34-16.1 143.34-9.75L143.34-9.75Q143.34-5.25 140.04-2.63 136.74 0 130.04 0ZM123.54-1.5L130.04-1.5Q132.39-1.5 134.34-1.88 136.29-2.25 138.06-3.13 139.84-4 140.84-5.7 141.84-7.4 141.84-9.75L141.84-9.75Q141.84-15.1 136.69-17L136.69-17 133.69-18.1 136.49-19.7Q139.94-21.6 139.94-25.75L139.94-25.75Q139.94-33.5 128.14-33.5L128.14-33.5 123.54-33.5 123.54-1.5ZM170.44-3.28Q167.69 0.5 161.54 0.5 155.39 0.5 152.64-3.28 149.89-7.05 149.89-15.05L149.89-15.05 149.89-19.95Q149.89-27.95 152.64-31.73 155.39-35.5 161.54-35.5 167.69-35.5 170.44-31.73 173.19-27.95 173.19-19.95L173.19-19.95 173.19-15.05Q173.19-7.05 170.44-3.28ZM165.74-33.38Q163.99-34 161.54-34 159.09-34 157.34-33.38 155.59-32.75 154.19-31.25 152.79-29.75 152.09-26.93 151.39-24.1 151.39-19.95L151.39-19.95 151.39-15.05Q151.39-10.9 152.09-8.08 152.79-5.25 154.19-3.75 155.59-2.25 157.34-1.63 159.09-1 161.54-1 163.99-1 165.74-1.63 167.49-2.25 168.89-3.75 170.29-5.25 170.99-8.08 171.69-10.9 171.69-15.05L171.69-15.05 171.69-19.95Q171.69-24.1 170.99-26.93 170.29-29.75 168.89-31.25 167.49-32.75 165.74-33.38ZM177.79-35L202.79-35 202.79-33.5 191.04-33.5 191.04 0 189.54 0 189.54-33.5 177.79-33.5 177.79-35Z" opacity="1" transform="matrix(1,0,0,1,0,0)" fill="#ffffff" class="undefined-text-0" data-fill-palette-color="primary" id="text-0"></path></svg></g></svg></g></svg></g></svg></g><g transform="matrix(1,0,0,1,87.77008604264559,0)"><svg viewBox="0 0 70.1133447147088 60.23253602139674" height="60.23253602139674" width="70.1133447147088"><g><svg xmlns="http://www.w3.org/2000/svg" data-name="Layer 1" viewBox="5.599998474121094 11.997737884521484 88.47000122070312 76.00225830078125" x="0" y="0" height="60.23253602139674" width="70.1133447147088" class="icon-icon-0" data-fill-palette-color="accent" id="icon-0"><path d="M82.07 48.5A18.51 18.51 0 0 0 63.83 33H52.33V28.67a8.5 8.5 0 1 0-5-0.1V33H35.83A18.51 18.51 0 0 0 17.6 48.52a12 12 0 0 0 0 24A18.51 18.51 0 0 0 35.83 88h28A18.51 18.51 0 0 0 82.07 72.5a12 12 0 0 0 0-24Zm-64.73 19a7 7 0 0 1 0-13.93Zm60 2a13.52 13.52 0 0 1-12 13.41V78.5a8.51 8.51 0 0 0-8.5-8.5h-14a8.51 8.51 0 0 0-8.5 8.5v4.41a13.52 13.52 0 0 1-12-13.41v-18A13.52 13.52 0 0 1 35.83 38h28a13.52 13.52 0 0 1 13.5 13.5Zm5-2v-14a7 7 0 0 1 0 14Z" fill="#ffffff" data-fill-palette-color="accent"></path><path d="M38 46a8.5 8.5 0 1 0 8.5 8.5A8.51 8.51 0 0 0 38 46Z" fill="#ffffff" data-fill-palette-color="accent"></path><path d="M62 46a8.5 8.5 0 1 0 8.5 8.5A8.51 8.51 0 0 0 62 46Z" fill="#ffffff" data-fill-palette-color="accent"></path></svg></g></svg></g><g></g></svg></g></svg></g><g><path d="M104.169 45.004A122.216 122.216 0 0 1 291.351 45.004L287.441 45.004A118.305 118.305 0 0 0 108.079 45.004L104.169 45.004M104.169 202.196A122.216 122.216 0 0 0 291.351 202.196L287.441 202.196A118.305 118.305 0 0 1 108.079 202.196L104.169 202.196" fill="#ffffff" stroke="transparent" data-fill-palette-color="tertiary"></path></g></svg></g></svg><rect width="395.52" height="247.2" fill="none" stroke="none" visibility="hidden"></rect></g></svg></g></svg>